<svg t="1688452408146" class="icon" viewBox="0 0 1024 1024" version="1.1" xmlns="http://www.w3.org/2000/svg" p-id="1888" width="32" height="32"><path d="M845.9 680.1h-642c-19.3 0-35-15.7-35-35v-94c0-67.8 55.2-123 123-123h466c67.8 0 123 55.2 123 123v94c0 19.3-15.7 35-35 35z m-631-46h620v-83c0-42.5-34.5-77-77-77h-466c-42.5 0-77 34.5-77 77v83z" fill="#1296db" p-id="1889"></path><path d="M191.9 955.1c-12.7 0-23-10.3-23-23v-283c0-12.7 10.3-23 23-23s23 10.3 23 23v283c0 12.7-10.3 23-23 23zM857.9 955.1c-12.7 0-23-10.3-23-23v-283c0-12.7 10.3-23 23-23s23 10.3 23 23v283c0 12.7-10.3 23-23 23zM309.9 850.1c-12.7 0-23-10.3-23-23v-166c0-12.7 10.3-23 23-23s23 10.3 23 23v166c0 12.7-10.3 23-23 23zM764.9 850.1c-12.7 0-23-10.3-23-23v-166c0-12.7 10.3-23 23-23s23 10.3 23 23v166c0 12.7-10.3 23-23 23z" fill="#1296db" p-id="1890"></path><path d="M805.4 477.1c-12.7 0-23-10.3-23-23v-356h-515v356c0 12.7-10.3 23-23 23s-23-10.3-23-23V91.7c0-22.2 15.4-39.6 35.1-39.6h536.7c19.7 0 35.1 17.4 35.1 39.6v362.4c0.1 12.7-10.2 23-22.9 23z" fill="#1296db" p-id="1891"></path><path d="M529.9 531.2c-7.8 0-14.4-6.1-15-14-0.5-8.3 5.7-15.4 14-15.9l20-1.3c8.3-0.5 15.4 5.7 15.9 14s-5.7 15.4-14 15.9l-20 1.3c-0.2-0.1-0.5 0-0.9 0z" fill="#1296db" p-id="1892"></path><path d="M775.8 579.1c-6.8 0-12.9-4.6-14.6-11.5C757.4 552 749 541 736 534.8c-10-4.7-19.3-5-20.1-5H597.7c-8.3 0-15-6.7-15-15s6.7-15 15-15h117.9c2.2 0 16.1 0.2 31.7 7.2 15.4 6.9 35.3 21.8 42.9 53.6 1.9 8.1-3 16.2-11.1 18.1-1 0.3-2.2 0.4-3.3 0.4z" fill="#1296db" p-id="1893"></path></svg>