<svg t="1688386290287" class="icon" viewBox="0 0 1024 1024" version="1.1" xmlns="http://www.w3.org/2000/svg" p-id="2880" width="200" height="200"><path d="M338.6 834.7h133.3V546H338.6v288.7zM383 590.4h44.4v199.9H383V590.4zM538.5 834.7h133.3v-422H538.5v422z m44.4-377.5h44.4v333.1h-44.4V457.2zM738.4 190.6v644.1h133.3V190.6H738.4z m88.8 599.7h-44.4V235.1h44.4v555.2zM138.7 834.7H272V346.1H138.7v488.6z m44.4-444.2h44.4v399.8h-44.4V390.5z" fill="#ffffff" p-id="2881"></path><path d="M463.6 490.3h-77.1c-1.1 0-2-0.9-2-2v-77.1c0-1.1 0.9-2 2-2h77.1c1.1 0 2 0.9 2 2v77.1c0 1.1-0.9 2-2 2z" fill="#ffffff" p-id="2882"></path><path d="M425 510.6c-33.5 0-60.8-27.3-60.8-60.8S391.5 389 425 389s60.8 27.3 60.8 60.8-27.2 60.8-60.8 60.8z m0-81.2c-11.2 0-20.3 9.1-20.3 20.3 0 11.2 9.1 20.3 20.3 20.3s20.3-9.1 20.3-20.3c0-11.2-9.1-20.3-20.3-20.3z" fill="#ffffff" p-id="2883"></path></svg>