<svg t="1688386317720" class="icon" viewBox="0 0 1024 1024" version="1.1" xmlns="http://www.w3.org/2000/svg" p-id="3091" width="200" height="200"><path d="M367.905181 776.21488a40.891847 40.891847 0 0 1-34.563347-18.498693L154.1966 472.446874a40.891847 40.891847 0 1 1 68.639886-44.786308L351.353719 633.093416l52.088424-200.564773a40.891847 40.891847 0 0 1 21.906347-26.774424L633.215378 305.471833a40.891847 40.891847 0 0 1 53.06204 15.577846l104.176848 169.40908L942.338269 29.451866a40.891847 40.891847 0 0 1 77.889232 25.800808l-180.11885 544.25101a40.891847 40.891847 0 0 1-73.99477 8.762539L633.215378 395.531257 477.923721 471.473259 407.336605 745.059187a40.891847 40.891847 0 0 1-33.102924 30.182078zM981.769692 1022.539577H41.257213a40.891847 40.891847 0 0 1-40.891847-39.918232V41.135251a40.891847 40.891847 0 1 1 82.270502 0v900.594247h899.133824a40.891847 40.891847 0 1 1 0 82.270502z" fill="#ffffff" p-id="3092"></path></svg>