<svg t="1688386524160" class="icon" viewBox="0 0 1024 1024" version="1.1" xmlns="http://www.w3.org/2000/svg" p-id="11992" width="200" height="200"><path d="M877.2 419h-61V166c0-21-17-38-38-38H245.8c-21 0-38 17-38 38v253h-61c-21 0-38 17-38 38v401c0 21 17 38 38 38h730.4c21 0 38-17 38-38V457c0-21-17-38-38-38zM267.8 188h488.4v231H701c-21 0-38 17-38 38v170.5H361V457c0-21-17-38-38-38h-55.2V188z m587.4 648H168.8V479H301v170.5c0 21 17 38 38 38h346c21 0 38-17 38-38V479h132.2v357z" p-id="11993" fill="#ffffff"></path></svg>